<svg xmlns="http://www.w3.org/2000/svg" version="1.1" xmlns:xlink="http://www.w3.org/1999/xlink" xmlns:svgjs="http://svgjs.dev/svgjs" width="1000" height="1125" viewBox="0 0 1000 1125"><g transform="matrix(1,0,0,1,0,0)"><svg viewBox="0 0 320 360" data-background-color="#ffffff" preserveAspectRatio="xMidYMid meet" height="1125" width="1000" xmlns="http://www.w3.org/2000/svg" xmlns:xlink="http://www.w3.org/1999/xlink"><g id="tight-bounds" transform="matrix(1,0,0,1,0,0)"><svg viewBox="0 0 320 360" height="360" width="320"><g><svg></svg></g><g><svg viewBox="0 0 320 360" height="360" width="320"><g><path xmlns="http://www.w3.org/2000/svg" d="M297.491 100.645c-12.426-21.51-112.674-79.355-137.491-79.355-24.817 0-125.028 57.845-137.491 79.355-11.591 20.02-11.591 138.726 0 158.746 12.463 21.474 112.674 79.319 137.491 79.319 24.817 0 125.064-57.845 137.491-79.355 11.591-20.02 11.591-138.69 0-158.71zM309.481 93.705c-14.461-24.998-119.469-86.295-149.481-86.295-30.012 0-135.02 61.297-149.481 86.295-14.025 24.199-14.025 148.391 0 172.59 14.461 24.998 119.469 86.295 149.481 86.295 30.012 0 135.02-61.297 149.481-86.259 14.025-24.235 14.025-148.427 0-172.626zM300.906 261.353c-12.753 22.055-115.472 81.317-140.906 81.318-25.434 0-128.153-59.298-140.906-81.354-11.881-20.529-11.881-142.178 0-162.707 12.753-22.019 115.472-81.281 140.906-81.281 25.434 0 128.153 59.298 140.906 81.318 11.881 20.529 11.881 142.178 0 162.706z" fill="#8b3c7f" fill-rule="nonzero" stroke="none" stroke-width="1" stroke-linecap="butt" stroke-linejoin="miter" stroke-miterlimit="10" stroke-dasharray="" stroke-dashoffset="0" font-family="none" font-weight="none" font-size="none" text-anchor="none" style="mix-blend-mode: normal" data-fill-palette-color="tertiary"></path></g><g transform="matrix(1,0,0,1,48,96.52421407248195)"><svg viewBox="0 0 224 166.9515718550361" height="166.9515718550361" width="224"><g><svg viewBox="0 0 224 166.9515718550361" height="166.9515718550361" width="224"><g><svg viewBox="0 0 224 166.9515718550361" height="166.9515718550361" width="224"><g transform="matrix(1,0,0,1,0,90.27140406808613)"><svg viewBox="0 0 224 76.68016778694997" height="76.68016778694997" width="224"><g><svg viewBox="0 0 224 76.68016778694997" height="76.68016778694997" width="224"><g><svg viewBox="0 0 224 76.68016778694997" height="76.68016778694997" width="224"><g transform="matrix(1,0,0,1,0,0)"><svg width="224" viewBox="1.5983333587646484 -35.86405944824219 134.04405212402344 45.89445114135742" height="76.68016778694997" data-palette-color="#ffffff"><path d="M31.45-5.75L31.45-5.75Q29.05-2.85 25.9-1.38 22.75 0.1 19.55 0.08 16.35 0.05 13.25-1.05 10.15-2.15 7.6-4.4 5.05-6.65 3.55-9.6L3.55-9.6Q1.65-13.25 1.6-17.23 1.55-21.2 3-24.5L3-24.5Q4.4-27.85 7-30.45L7-30.45Q9.65-33.15 12.9-34.55L12.9-34.55Q16.2-36 20.2-35.85 24.2-35.7 27.9-33.5L27.9-33.5Q28.9-33 29.68-32.38 30.45-31.75 31.15-31 31.85-30.25 32.2-29.83 32.55-29.4 33.25-28.45 33.95-27.5 34.15-27.25L34.15-27.25Q35-26.1 34.8-24.68 34.6-23.25 33.45-22.4 32.3-21.55 30.9-21.75 29.5-21.95 28.6-23.1L28.6-23.1 27.6-24.4 26.8-25.5Q26.6-25.8 26.18-26.25 25.75-26.7 25.38-26.98 25-27.25 24.45-27.6L24.45-27.6Q20.95-29.4 17.7-28.83 14.45-28.25 11.95-25.65L11.95-25.65Q9.35-23.05 8.7-19.63 8.05-16.2 9.65-12.8L9.65-12.8Q11.3-9.55 14.38-8 17.45-6.45 20.7-7.03 23.95-7.6 26.1-10.2L26.1-10.2Q27.1-11.35 27.25-12.05L27.25-12.05Q27.35-12.4 27.4-12.7L27.4-12.7Q25.95-12.75 21.9-12.55L21.9-12.55Q20.45-12.5 19.4-13.45 18.35-14.4 18.3-15.85 18.25-17.3 19.2-18.35 20.15-19.4 21.6-19.45L21.6-19.45Q25.65-19.6 30.75-19.6L30.75-19.6Q32.2-19.6 33.25-18.55L33.25-18.55Q34.35-17.5 34.3-15.95L34.3-15.95 34.3-14.8Q34.35-13.6 34.27-12.43 34.2-11.25 34-10.35L34-10.35Q33.4-8.1 31.45-5.75L31.45-5.75ZM40.65-1.05L40.65-1.05Q39.6-2.05 39.6-3.45L39.6-3.45Q39.55-8.4 39.55-11.25L39.55-11.25Q39.45-11.85 39.55-12.4L39.55-12.4Q39.5-17.95 39.5-22.45L39.5-22.45Q39.5-24.4 40.52-25.43 41.55-26.45 43-26.45L43-26.45Q44.05-26.45 44.92-25.88 45.8-25.3 46.2-23.85L46.2-23.85Q48.2-24.95 52.2-26.35L52.2-26.35Q53.5-26.8 54.72-26.23 55.95-25.65 56.4-24.35 56.85-23.05 56.27-21.83 55.7-20.6 54.4-20.15L54.4-20.15Q49.8-18.55 46.55-17L46.55-17Q46.35-15.4 46.5-12.45L46.5-12.45Q46.55-9.3 46.6-3.55L46.6-3.55Q46.6-2.1 45.57-1.05 44.55 0 43.12 0 41.7 0 40.65-1.05L40.65-1.05ZM78.4 0.5L78.4 0.5Q75.55-0.6 75.55-3.15L75.55-3.15Q72.7 0.85 67.45 0L67.45 0Q65.25-0.6 63.62-1.8 62-3 61.1-4.65 60.2-6.3 59.75-7.93 59.3-9.55 59.15-11.4L59.15-11.4Q59-12.4 59.15-14.7 59.3-17 59.4-18.1 59.5-19.2 59.75-21.13 60-23.05 60.05-23.5L60.05-23.5Q60.25-24.9 61.32-25.75 62.4-26.6 63.77-26.43 65.15-26.25 66-25.18 66.85-24.1 66.7-22.7L66.7-22.7 66.35-20.1Q66.1-18.25 66-17.32 65.9-16.4 65.77-14.53 65.65-12.65 65.8-11.85L65.8-11.85Q66-9.4 66.77-8.13 67.55-6.85 69.2-6.45L69.2-6.45Q70.3-6.15 71.65-6.63 73-7.1 74.35-9.25L74.35-9.25Q74.65-9.55 74.95-9.75L74.95-9.75Q75-17.1 74.9-22.9L74.9-22.9Q74.9-24.4 75.9-25.43 76.9-26.45 78.37-26.48 79.85-26.5 80.87-25.5 81.9-24.5 81.95-23L81.95-23Q82.05-15.6 81.95-2.95L81.95-2.95Q81.95-1.55 80.9-0.5L80.9-0.5Q79.85 0.5 78.4 0.5L78.4 0.5ZM94.49 6.6L94.49 6.6Q94.44 8.05 93.42 9.05 92.39 10.05 90.94 10.03 89.49 10 88.49 8.97 87.49 7.95 87.49 6.5L87.49 6.5Q87.64-2.15 87.64-22.9L87.64-22.9Q87.64-24.35 88.67-25.38 89.69-26.4 91.14-26.4L91.14-26.4Q93.04-26.4 94.09-24.75L94.09-24.75Q99.49-27.75 104.39-25.55L104.39-25.55Q108.69-23.55 110.69-18.45L110.69-18.45Q111.49-16.35 111.67-14.08 111.84-11.8 111.32-9.38 110.79-6.95 109.19-4.8 107.59-2.65 105.04-1.4L105.04-1.4Q100.74 0.75 97.34-0.25L97.34-0.25Q95.94-0.65 94.59-1.55L94.59-1.55Q94.54 2.3 94.49 6.6L94.49 6.6ZM99.34-6.7L99.34-6.7Q100.09-6.45 101.94-7.35L101.94-7.35Q103.89-8.35 104.54-10.78 105.19-13.2 104.29-15.95L104.29-15.95Q103.19-18.4 101.49-19.2L101.49-19.2Q99.74-20 98.09-19.35 96.44-18.7 94.64-15.95L94.64-15.95 94.64-10.2Q95.64-8.35 96.89-7.53 98.14-6.7 99.34-6.7L99.34-6.7ZM119.74 9.05L119.74 9.05Q118.74 10 117.37 9.95 115.99 9.9 115.04 8.93 114.09 7.95 114.14 6.58 114.19 5.2 115.14 4.25L115.14 4.25Q115.89 3.55 116.82 2.78 117.74 2 118.32 1.45 118.89 0.9 119.39 0.25L119.39 0.25Q120.34-0.9 121.19-2.25L121.19-2.25Q121.04-2.45 120.99-2.7L120.99-2.7 113.94-21.8Q113.44-23.15 114.02-24.48 114.59-25.8 115.94-26.3 117.29-26.8 118.62-26.23 119.94-25.65 120.44-24.3L120.44-24.3 125.29-10.75Q126.44-13.8 129.19-24.05L129.19-24.05Q129.54-25.35 130.74-26 131.94-26.65 133.27-26.28 134.59-25.9 135.24-24.7 135.89-23.5 135.49-22.15L135.49-22.15Q135.34-21.7 134.72-18.98 134.09-16.25 133.84-15.5 133.59-14.75 132.97-12.7 132.34-10.65 131.94-9.65L131.94-9.65 130.84-6.75Q130.14-4.95 129.54-3.75L129.54-3.75 128.14-1.05Q127.34 0.5 126.44 1.83 125.54 3.15 124.59 4.35L124.59 4.35Q123.94 5.2 122.99 6.05L122.99 6.05 120.99 7.85Q119.99 8.75 119.74 9.05L119.74 9.05Z" opacity="1" transform="matrix(1,0,0,1,0,0)" fill="#ffffff" class="undefined-text-0" data-fill-palette-color="quaternary" id="text-0"></path></svg></g></svg></g></svg></g></svg></g><g transform="matrix(1,0,0,1,42.784000000000006,0)"><svg viewBox="0 0 138.432 79.08192726394324" height="79.08192726394324" width="138.432"><g><svg xmlns="http://www.w3.org/2000/svg" xmlns:xlink="http://www.w3.org/1999/xlink" version="1.1" x="0" y="0" viewBox="18.501567840576172 33.459999084472656 60.46712112426758 34.542999267578125" enable-background="new 0 0 100 100" xml:space="preserve" height="79.08192726394324" width="138.432" class="icon-icon-0" data-fill-palette-color="quaternary" id="icon-0"><g fill="#ffffff" data-fill-palette-color="quaternary"><g fill="#ffffff" data-fill-palette-color="quaternary"><g fill="#ffffff" data-fill-palette-color="quaternary"><g fill="#ffffff" data-fill-palette-color="quaternary"><path d="M75.036 52.356c4.69 1.377 3.886 4.781 3.872 7.063h-11.7c-0.421-1.381-1.46-2.671-3.942-3.396l-0.785-0.235c-3.284-0.955-5.042-1.471-5.502-2.506-0.112-0.373-0.078-0.787 1.017-1.185 3.519-1.024 5.302-1.56 5.723-2.878h0.222c-0.06-0.053-0.118-0.105-0.173-0.168-1.739-1.677-3.067-4.949-3.067-7.591 0-3.736 2.86-6.191 5.566-6.191 2.705 0 5.427 2.652 5.427 6.393 0 2.642-1.478 5.811-3.293 7.432C68.775 50.619 70.815 51.118 75.036 52.356z" fill="#ffffff" data-fill-palette-color="quaternary"></path></g><g fill="#ffffff" data-fill-palette-color="quaternary"><g fill="#ffffff" data-fill-palette-color="quaternary"><path d="M66.957 68.003H30.61c-0.022-0.364-0.045-0.728-0.089-1.157-0.112-1.436-0.224-2.914 0.178-4.265 0.491-1.585 1.764-2.978 4.71-3.836l1.139-0.364c5.179-1.479 7.948-2.314 8.863-4.265l0.291-0.491-0.022-0.622c-0.067-0.043-0.111-0.085-0.201-0.193-0.313-0.321-0.625-0.643-0.916-1.027-2.009-2.552-3.438-6.494-3.438-9.75 0-4.159 3.082-8.573 7.68-8.573 3.595 0 7.458 3.558 7.458 8.872 0 3.387-1.764 7.585-4.175 10.05-0.157 0.173-0.335 0.321-0.491 0.472l-0.29 0.258 0.089 0.387c0.625 2.441 3.438 3.277 9.086 4.884l1.161 0.364c2.925 0.858 4.309 2.273 4.912 3.836h0.022c0.559 1.521 0.491 3.173 0.424 4.715C66.979 67.531 66.979 67.788 66.957 68.003z" fill="#ffffff" data-fill-palette-color="quaternary"></path></g></g><g fill="#ffffff" data-fill-palette-color="quaternary"><path d="M22.434 52.356c-4.694 1.377-3.884 4.781-3.872 7.063h11.696c0.424-1.381 1.459-2.671 3.946-3.396l0.782-0.235c3.287-0.955 5.046-1.471 5.503-2.506-0.125-0.411 0.102-1.027-1.019-1.185-3.517-1.024-5.3-1.56-5.72-2.878h-0.22c0.059-0.053 0.119-0.105 0.172-0.168 1.739-1.677 3.068-4.949 3.068-7.591 0-3.736-2.859-6.191-5.566-6.191-2.708 0-5.427 2.652-5.427 6.393 0 2.642 1.472 5.811 3.287 7.432C28.692 50.619 26.649 51.118 22.434 52.356z" fill="#ffffff" data-fill-palette-color="quaternary"></path></g></g></g></g></svg></g></svg></g><g></g></svg></g></svg></g></svg></g></svg></g><defs></defs></svg><rect width="320" height="360" fill="none" stroke="none" visibility="hidden"></rect></g></svg></g></svg>